<svg width="50" height="50" viewBox="0 0 74 74" fill="none" xmlns="http://www.w3.org/2000/svg">
<path d="M0 23C0 10.2975 10.2975 0 23 0H51C63.7025 0 74 10.2975 74 23V51C74 63.7025 63.7025 74 51 74H23C10.2975 74 0 63.7025 0 51V23Z" fill="#F6F0D8"/>
<path d="M50.8737 50.8149C50.6265 50.6498 50.4213 50.5241 50.2284 50.3862C45.6129 47.097 40.9973 43.8077 36.3817 40.516C32.9627 38.0793 29.5511 35.6278 26.1197 33.2083C24.0851 31.7719 23.0813 29.8452 23.1085 27.3567C23.1258 25.7823 23.0838 24.2079 23.0739 22.6335C23.0739 22.5054 23.1085 22.3773 23.1382 22.1752C23.3212 22.2812 23.4497 22.3428 23.5634 22.4241C27.242 25.0579 30.9231 27.6967 34.5993 30.333C39.1506 33.5951 43.7043 36.8548 48.2482 40.1243C49.8873 41.3045 50.8514 42.9207 50.9528 44.9263C51.0492 46.8087 50.9602 48.6984 50.9478 50.5857C50.9503 50.635 50.9207 50.6843 50.8737 50.8149Z" fill="#202020"/>
<path d="M23.0467 33.0359C23.4991 33.3635 23.8452 33.6149 24.1914 33.8686C27.5436 36.33 30.891 38.7988 34.2507 41.2503C36.0504 42.561 36.9503 44.3375 37.0121 46.5278C37.0591 48.2377 37.0245 49.9501 37.022 51.66C37.022 51.7512 36.9973 51.8423 36.975 52.0025C36.8267 51.9286 36.7056 51.8867 36.6067 51.8152C33.865 49.8318 31.1234 47.846 28.3842 45.8601C27.4818 45.2072 26.5721 44.5617 25.6796 43.894C23.9219 42.5758 23.0245 40.8117 23.0072 38.6189C22.9923 36.9632 23.0047 35.305 23.0072 33.6493C23.0072 33.4917 23.0245 33.334 23.0467 33.0359Z" fill="#202020"/>
<path d="M50.8366 39.8976C50.7179 39.8163 50.5968 39.7399 50.4831 39.6562C46.9034 37.0618 43.3212 34.4747 39.7538 31.8704C37.9417 30.5474 37.0245 28.7438 37.0072 26.5017C36.9948 24.8584 37.0047 23.215 37.0047 21.5716C37.0047 21.4115 37.0047 21.2513 37.0047 21C37.1975 21.1035 37.331 21.1528 37.4423 21.2341C41.0789 23.9049 44.7278 26.5658 48.3471 29.2612C50.0776 30.5498 50.9701 32.2992 50.9627 34.4772C50.9553 36.1058 50.9602 37.7368 50.9602 39.3654C50.9602 39.5231 50.9602 39.6808 50.9602 39.841C50.9182 39.8582 50.8762 39.8779 50.8366 39.8976Z" fill="#202020"/>
</svg>
